# Blender 4.1.1
# www.blender.org
o Intersection
v 0.500000 0.000000 -0.500000 0.6510 0.9921 0.4353
v 0.155434 0.000000 -0.500000 0.3921 0.3921 0.3921
v 0.500000 0.000000 -0.155439 0.3921 0.3921 0.3921
v 0.155434 0.000000 -0.155439 0.3921 0.3921 0.3921
v 0.500000 0.000000 -0.000000 0.3921 0.3921 0.3921
v -0.000000 0.000000 -0.500000 0.3921 0.3921 0.3921
v 0.000000 0.000000 0.000000 0.3921 0.3921 0.3921
v 0.155434 0.000000 -0.500000 0.6510 0.9921 0.4353
v 0.500000 0.000000 -0.155439 0.6510 0.9921 0.4353
v 0.155434 0.000000 -0.155439 0.6510 0.9921 0.4353
v 0.500000 0.000000 0.500000 0.6510 0.9921 0.4353
v 0.155434 0.000000 0.500000 0.3921 0.3921 0.3921
v 0.500000 0.000000 0.155439 0.3921 0.3921 0.3921
v 0.155434 0.000000 0.155439 0.3921 0.3921 0.3921
v 0.000000 0.000000 0.500000 0.3921 0.3921 0.3921
v 0.155434 0.000000 0.500000 0.6510 0.9921 0.4353
v 0.500000 0.000000 0.155439 0.6510 0.9921 0.4353
v 0.155434 0.000000 0.155439 0.6510 0.9921 0.4353
v -0.500000 0.000000 -0.500000 0.6510 0.9921 0.4353
v -0.155434 0.000000 -0.500000 0.3921 0.3921 0.3921
v -0.500000 0.000000 -0.155439 0.3921 0.3921 0.3921
v -0.155434 0.000000 -0.155439 0.3921 0.3921 0.3921
v -0.500000 0.000000 0.000000 0.3921 0.3921 0.3921
v -0.155434 0.000000 -0.500000 0.6510 0.9921 0.4353
v -0.500000 0.000000 -0.155439 0.6510 0.9921 0.4353
v -0.155434 0.000000 -0.155439 0.6510 0.9921 0.4353
v -0.500000 0.000000 0.500000 0.6510 0.9921 0.4353
v -0.155434 0.000000 0.500000 0.3921 0.3921 0.3921
v -0.500000 0.000000 0.155439 0.3921 0.3921 0.3921
v -0.155434 0.000000 0.155439 0.3921 0.3921 0.3921
v -0.155434 0.000000 0.500000 0.6510 0.9921 0.4353
v -0.500000 0.000000 0.155439 0.6510 0.9921 0.4353
v -0.155434 0.000000 0.155439 0.6510 0.9921 0.4353
vn -0.0000 1.0000 -0.0000
vt 0.000000 0.000000
s 0
f 8/1/1 9/1/1 1/1/1
f 7/1/1 3/1/1 4/1/1
f 16/1/1 17/1/1 18/1/1
f 14/1/1 5/1/1 7/1/1
f 24/1/1 25/1/1 26/1/1
f 22/1/1 23/1/1 7/1/1
f 31/1/1 32/1/1 27/1/1
f 7/1/1 29/1/1 30/1/1
f 8/1/1 10/1/1 9/1/1
f 2/1/1 6/1/1 7/1/1
f 7/1/1 5/1/1 3/1/1
f 4/1/1 2/1/1 7/1/1
f 16/1/1 11/1/1 17/1/1
f 7/1/1 15/1/1 12/1/1
f 14/1/1 13/1/1 5/1/1
f 7/1/1 12/1/1 14/1/1
f 24/1/1 19/1/1 25/1/1
f 7/1/1 6/1/1 20/1/1
f 22/1/1 21/1/1 23/1/1
f 7/1/1 20/1/1 22/1/1
f 31/1/1 33/1/1 32/1/1
f 28/1/1 15/1/1 7/1/1
f 7/1/1 23/1/1 29/1/1
f 30/1/1 28/1/1 7/1/1
