# Blender 4.1.1
# www.blender.org
o Plane
v -0.500000 0.000000 0.500000 0.6197 0.9921 0.6079
v 0.500000 0.000000 0.500000 0.6236 1.0000 0.6118
v -0.500000 0.000000 -0.500000 0.6236 1.0000 0.6118
v 0.500000 0.000000 -0.500000 0.6236 1.0000 0.6118
v -0.500000 0.000000 -0.163196 0.6118 0.9843 0.6039
v -0.500000 0.000000 0.163196 0.6157 0.9882 0.6079
v 0.500000 0.000000 0.163196 0.5608 0.8627 0.5608
v 0.500000 0.000000 -0.163196 0.5961 0.9451 0.5921
v -0.500000 0.000000 -0.155434 0.4823 0.4823 0.4823
v -0.500000 0.000000 0.155434 0.4745 0.4745 0.4784
v 0.500000 0.000000 0.155434 0.4784 0.4784 0.4784
v 0.500000 0.000000 -0.155434 0.4823 0.4823 0.4823
v -0.500000 0.007635 0.155434 0.3568 0.3568 0.4157
v -0.500000 0.007635 0.163196 0.3882 0.4589 0.4392
v 0.500000 0.007635 -0.155434 0.3568 0.3568 0.4157
v 0.500000 0.007635 -0.163196 0.3568 0.3568 0.4157
v 0.500000 0.007635 0.163196 0.3568 0.3568 0.4157
v -0.500000 0.007635 -0.163196 0.3804 0.4275 0.4314
v -0.500000 0.007635 -0.155434 0.4039 0.4039 0.4392
v 0.500000 0.007635 0.155434 0.3568 0.3568 0.4157
vn -0.0000 1.0000 -0.0000
vn -0.0000 -0.0000 -1.0000
vn -0.0000 -0.0000 1.0000
vt 1.000000 0.666667
vt 0.000000 1.000000
vt 0.000000 0.666667
vt 1.000000 0.000000
vt 0.000000 0.333333
vt 0.000000 0.000000
vt 1.000000 0.444444
vt 0.000000 0.555555
vt 0.000000 0.444444
vt 1.000000 0.555556
vt 1.000000 0.333333
vt 1.000000 1.000000
s 0
f 8/1/1 3/2/1 5/3/1
f 2/4/1 6/5/1 1/6/1
f 5/3/2 16/1/2 8/1/2
f 11/7/1 9/8/1 10/9/1
f 15/10/1 18/3/1 19/8/1
f 17/11/1 13/9/1 14/5/1
f 10/9/2 20/7/2 11/7/2
f 7/11/3 14/5/3 6/5/3
f 12/10/3 19/8/3 9/8/3
f 8/1/1 4/12/1 3/2/1
f 2/4/1 7/11/1 6/5/1
f 5/3/2 18/3/2 16/1/2
f 11/7/1 12/10/1 9/8/1
f 15/10/1 16/1/1 18/3/1
f 17/11/1 20/7/1 13/9/1
f 10/9/2 13/9/2 20/7/2
f 7/11/3 17/11/3 14/5/3
f 12/10/3 15/10/3 19/8/3
