# Blender 4.1.1
# www.blender.org
o Road
v -0.500000 0.000000 0.500000 0.6507 0.9939 0.4365
v 0.500000 0.000000 0.500000 0.6507 0.9939 0.4365
v -0.500000 0.000000 0.000000 0.3937 0.3937 0.3937
v 0.500000 0.000000 0.000000 0.3937 0.3937 0.3937
v -0.500000 0.000000 0.156053 0.3937 0.3937 0.3937
v 0.500000 0.000000 0.156053 0.3937 0.3937 0.3937
v -0.500000 0.000000 0.156053 0.6507 0.9939 0.4365
v 0.500000 0.000000 0.156053 0.6507 0.9939 0.4365
v -0.500000 0.000000 -0.500000 0.6507 0.9939 0.4365
v 0.500000 0.000000 -0.500000 0.6507 0.9939 0.4365
v -0.500000 0.000000 -0.156053 0.3937 0.3937 0.3937
v 0.500000 0.000000 -0.156053 0.3937 0.3937 0.3937
v -0.500000 0.000000 -0.156053 0.6507 0.9939 0.4365
v 0.500000 0.000000 -0.156053 0.6507 0.9939 0.4365
vn -0.0000 1.0000 -0.0000
vt 0.000000 0.000000
s 0
f 4/1/1 5/1/1 6/1/1
f 8/1/1 1/1/1 2/1/1
f 11/1/1 4/1/1 12/1/1
f 9/1/1 14/1/1 10/1/1
f 4/1/1 3/1/1 5/1/1
f 8/1/1 7/1/1 1/1/1
f 11/1/1 3/1/1 4/1/1
f 9/1/1 13/1/1 14/1/1
